<svg width="32" height="32" viewBox="0 0 32 32" fill="none" xmlns="http://www.w3.org/2000/svg">
<rect width="32" height="32" fill="black"/>
<path d="M29.3185 9.1679C29.3185 8.70202 29.0703 8.27159 28.6662 8.03865L16.8135 1.19228C16.4104 0.959343 15.9131 0.959343 15.509 1.19228L3.65426 8.03359C3.25117 8.26653 3.00203 8.69696 3.00203 9.16283L3 22.8505C3 23.3164 3.24813 23.7468 3.65224 23.9798L15.505 30.8251C15.9081 31.058 16.4053 31.058 16.8094 30.8251L28.6642 23.9838C29.0673 23.7509 29.3164 23.3204 29.3164 22.8546L29.3185 9.16688V9.1679ZM16.1572 25.1303L8.25842 20.5687L8.26045 11.4477L16.1602 6.88814L24.059 11.4497L24.057 20.5707L16.1572 25.1303Z" fill="white" stroke="#DADADA" stroke-width="0.25" stroke-miterlimit="10"/>
<path d="M16.1603 25.1289V30.9969" stroke="#DADADA" stroke-width="0.25" stroke-miterlimit="10"/>
<path d="M3.17926 23.4963L8.25943 20.5684" stroke="#DADADA" stroke-width="0.25" stroke-miterlimit="10"/>
<path d="M29.1291 23.5053L24.057 20.5723" stroke="#DADADA" stroke-width="0.25" stroke-miterlimit="10"/>
<path d="M16.1603 6.88828V1" stroke="#DADADA" stroke-width="0.25" stroke-miterlimit="10"/>
<path d="M24.059 11.4496L29.1118 8.46289" stroke="#DADADA" stroke-width="0.25" stroke-miterlimit="10"/>
<path d="M3.16302 8.52148L8.26041 11.4474" stroke="#DADADA" stroke-width="0.25" stroke-miterlimit="10"/>
<path d="M5.66357 9.95703L8.22797 11.4296" stroke="#DADADA" stroke-width="0.25" stroke-miterlimit="10"/>
<path d="M24.059 11.4318L26.6203 9.95312" stroke="#DADADA" stroke-width="0.25" stroke-miterlimit="10"/>
<path d="M16.1603 3.94531V6.89654" stroke="#DADADA" stroke-width="0.25" stroke-miterlimit="10"/>
<path d="M5.66357 9.95817L16.1602 3.94531" stroke="#DADADA" stroke-width="0.25" stroke-miterlimit="10"/>
<path d="M8.28072 20.5547L5.71936 22.0333" stroke="#DADADA" stroke-width="0.25" stroke-miterlimit="10"/>
<path d="M24.0256 20.5547L26.5869 22.0333" stroke="#DADADA" stroke-width="0.25" stroke-miterlimit="10"/>
<path d="M16.1603 28.0801V25.1289" stroke="#DADADA" stroke-width="0.25" stroke-miterlimit="10"/>
<path d="M5.71928 22.0324L5.66357 9.95703" stroke="#DADADA" stroke-width="0.25" stroke-miterlimit="10"/>
<path d="M16.1603 28.0806L5.71936 22.0312" stroke="#DADADA" stroke-width="0.25" stroke-miterlimit="10"/>
<path d="M16.1603 28.0806L26.587 22.0312" stroke="#DADADA" stroke-width="0.25" stroke-miterlimit="10"/>
<path d="M26.5869 22.0315L26.6203 9.95312" stroke="#DADADA" stroke-width="0.25" stroke-miterlimit="10"/>
<path d="M16.1603 3.94531L26.6204 9.95513" stroke="#DADADA" stroke-width="0.25" stroke-miterlimit="10"/>
</svg>
