<?xml version="1.0" encoding="UTF-8"?>
<svg id="_Слой_2" data-name="Слой 2" xmlns="http://www.w3.org/2000/svg" viewBox="0 0 260.11 296.35">
  <defs>
    <style>
      .cls-1 {
        fill: #fff;
        stroke: #dadada;
        stroke-miterlimit: 10;
        stroke-width: .25px;
      }
    </style>
  </defs>
  <g id="_Слой_1-2" data-name="Слой 1">
    <g>
      <path class="cls-1" d="m259.99,80.65c0-4.6-2.45-8.85-6.44-11.15L136.52,1.9c-3.98-2.3-8.89-2.3-12.88,0L6.59,69.45c-3.98,2.3-6.44,6.55-6.44,11.15l-.02,135.15c0,4.6,2.45,8.85,6.44,11.15l117.03,67.59c3.98,2.3,8.89,2.3,12.88,0l117.05-67.55c3.98-2.3,6.44-6.55,6.44-11.15l.02-135.15Zm-129.95,157.61l-77.99-45.04.02-90.06,78-45.02,77.99,45.04-.02,90.06-78,45.02Z"/>
      <g>
        <line class="cls-1" x1="130.07" y1="238.26" x2="130.07" y2="296.2"/>
        <line class="cls-1" x1="1.9" y1="222.13" x2="52.06" y2="193.22"/>
        <line class="cls-1" x1="258.12" y1="222.2" x2="208.04" y2="193.24"/>
        <line class="cls-1" x1="130.07" y1="58.14" x2="130.07" y2="0"/>
        <line class="cls-1" x1="208.06" y1="103.18" x2="257.95" y2="73.69"/>
        <line class="cls-1" x1="1.74" y1="74.27" x2="52.07" y2="103.16"/>
        <line class="cls-1" x1="26.43" y1="88.44" x2="51.75" y2="102.98"/>
        <line class="cls-1" x1="208.06" y1="103.01" x2="233.35" y2="88.41"/>
        <line class="cls-1" x1="130.07" y1="29.07" x2="130.07" y2="58.21"/>
        <line class="cls-1" x1="26.43" y1="88.44" x2="130.07" y2="29.07"/>
        <line class="cls-1" x1="52.27" y1="193.07" x2="26.98" y2="207.67"/>
        <line class="cls-1" x1="207.73" y1="193.07" x2="233.02" y2="207.67"/>
        <line class="cls-1" x1="130.07" y1="267.4" x2="130.07" y2="238.26"/>
        <line class="cls-1" x1="26.98" y1="207.67" x2="26.43" y2="88.44"/>
        <line class="cls-1" x1="130.07" y1="267.4" x2="26.98" y2="207.67"/>
        <line class="cls-1" x1="130.07" y1="267.4" x2="233.02" y2="207.67"/>
        <line class="cls-1" x1="233.02" y1="207.67" x2="233.35" y2="88.41"/>
        <line class="cls-1" x1="130.07" y1="29.07" x2="233.35" y2="88.41"/>
      </g>
    </g>
  </g>
</svg>